<svg width="24" height="24" viewBox="0 0 24 24" fill="none" xmlns="http://www.w3.org/2000/svg">
<path fill-rule="evenodd" clip-rule="evenodd" d="M10.1977 4.07167C10.2117 4.05761 10.2308 4.04971 10.2507 4.04971H13.7507C13.7706 4.04971 13.7897 4.05761 13.8037 4.07167C13.8178 4.08574 13.8257 4.10482 13.8257 4.12471V5.94971H10.1757V4.12471C10.1757 4.10482 10.1836 4.08574 10.1977 4.07167ZM10.2507 2.44971C9.80645 2.44971 9.3804 2.62618 9.06628 2.9403C8.75216 3.25443 8.57568 3.68047 8.57568 4.12471V4.19971H5.00068C4.55645 4.19971 4.1304 4.37618 3.81628 4.6903C3.50216 5.00443 3.32568 5.43047 3.32568 5.87471V20.7497V21.5497H4.12568H19.0007C19.4449 21.5497 19.871 21.3732 20.1851 21.0591C20.4992 20.745 20.6757 20.3189 20.6757 19.8747V5.87471C20.6757 5.43047 20.4992 5.00443 20.1851 4.6903C19.871 4.37618 19.4449 4.19971 19.0007 4.19971H15.4257V4.12471C15.4257 3.68047 15.2492 3.25443 14.9351 2.9403C14.621 2.62618 14.1949 2.44971 13.7507 2.44971H10.2507ZM15.4257 5.79971V6.74971V7.54971H14.6257H9.37568H8.57568V6.74971V5.79971H5.00068C4.98079 5.79971 4.96172 5.80761 4.94765 5.82167C4.93359 5.83574 4.92568 5.85482 4.92568 5.87471V19.9497H19.0007C19.0206 19.9497 19.0397 19.9418 19.0537 19.9277C19.0678 19.9137 19.0757 19.8946 19.0757 19.8747V5.87471C19.0757 5.85481 19.0678 5.83574 19.0537 5.82167C19.0397 5.80761 19.0206 5.79971 19.0007 5.79971H15.4257ZM8.50068 11.9247H15.5007V10.3247H8.50068V11.9247ZM13.7507 15.4247H8.50068V13.8247H13.7507V15.4247Z" fill="black" fill-opacity="0.75"/>
</svg>
